<svg width="683" height="683" viewBox="0 0 683 683" fill="none" xmlns="http://www.w3.org/2000/svg">
<path d="M129.467 174.133C117.467 180.133 111.6 192.8 114.8 205.867C116.933 214.8 126.133 224.267 134.933 226.4C139.6 227.6 192.533 228 341.733 228C567.733 228 551.6 228.8 561.067 217.867C573.867 203.333 570.133 182.667 553.2 174.133L546.133 170.667H341.333H136.533L129.467 174.133Z" fill="white"/>
<path d="M130.667 315.467C107.6 325.467 109.2 361.067 133.067 368C136.533 369.067 200.4 369.333 344.267 369.067L550.4 368.667L556.267 364.667C574.667 351.733 572 323.867 551.733 315.333C547.333 313.6 523.733 313.333 341.067 313.333C160.267 313.467 134.8 313.733 130.667 315.467Z" fill="white"/>
<path d="M134.133 456.267C126.267 458.4 116.8 468.4 114.8 476.8C111.6 489.867 117.467 502.533 129.467 508.533L136.533 512H341.333H546.133L553.2 508.533C565.2 502.533 571.067 489.867 567.867 476.8C565.733 467.867 556.533 458.4 547.733 456.267C539.467 454.133 142 454.267 134.133 456.267Z" fill="white"/>
</svg>
